<svg width="117" height="117" viewBox="0 0 117 117" fill="none" xmlns="http://www.w3.org/2000/svg">
<rect width="117" height="117" fill="#F25C05"/>
<path d="M54.2343 29C56.8116 29 59.3874 29 61.9648 29C62.712 29.3252 63.1069 29.9148 63.3332 30.6867C63.6582 31.793 64.0668 32.8749 64.407 33.9766C64.5148 34.3261 64.7062 34.4675 65.0388 34.5981C66.6365 35.2288 68.2236 35.8867 69.7955 36.5797C70.1509 36.7362 70.4076 36.7438 70.7387 36.5706C71.8292 36.0022 72.9318 35.4582 74.0344 34.9112C75.0459 34.4082 75.6474 34.5009 76.4401 35.2896C77.9316 36.7727 79.4184 38.2603 80.9008 39.751C81.7072 40.5625 81.7983 41.1688 81.282 42.2082C80.7337 43.3099 80.19 44.4131 79.6235 45.5042C79.461 45.8187 79.4716 46.0619 79.6174 46.3962C80.313 47.9872 80.9767 49.5934 81.6146 51.2102C81.7406 51.5293 81.8864 51.6919 82.2099 51.7952C83.4356 52.1827 84.6521 52.5961 85.8686 53.0124C86.8148 53.3361 87.2006 53.8816 87.2021 54.8846C87.2067 57.0257 87.2052 59.1683 87.2021 61.3094C87.2006 62.3761 86.8255 62.8928 85.7988 63.2438C84.5822 63.6586 83.3581 64.0492 82.1492 64.4868C81.9441 64.5613 81.7361 64.7877 81.648 64.9959C80.957 66.6097 80.2826 68.2311 79.6356 69.8631C79.54 70.1047 79.5217 70.4572 79.628 70.6837C80.1611 71.834 80.7489 72.9585 81.3108 74.0951C81.7923 75.0692 81.6981 75.6846 80.9311 76.455C79.4352 77.9609 77.9346 79.4608 76.4295 80.9576C75.6549 81.728 75.0474 81.8222 74.0724 81.3405C72.9197 80.7706 71.776 80.178 70.6126 79.6294C70.4137 79.5367 70.1039 79.5504 69.8927 79.6355C68.2464 80.2965 66.6061 80.9743 64.978 81.6794C64.7578 81.7751 64.527 82.0091 64.4465 82.231C64.0136 83.4223 63.6294 84.6304 63.2239 85.8308C62.8791 86.8535 62.3582 87.2334 61.2905 87.2349C59.1687 87.238 57.047 87.238 54.9253 87.2349C53.8485 87.2334 53.3245 86.8581 52.9828 85.843C52.5773 84.6425 52.1657 83.4436 51.783 82.2355C51.6812 81.9149 51.5187 81.7675 51.1968 81.6398C49.5808 81.0031 47.98 80.3315 46.3868 79.6431C46.0831 79.5124 45.8522 79.4668 45.5454 79.6249C44.42 80.2084 43.2825 80.7676 42.148 81.3298C41.1653 81.8161 40.5487 81.7234 39.7878 80.9667C38.2705 79.4562 36.7563 77.9412 35.2482 76.4231C34.5116 75.6816 34.4159 75.0585 34.8852 74.1103C35.4548 72.957 36.0501 71.8157 36.5938 70.6502C36.6925 70.439 36.6698 70.1062 36.5786 69.8798C35.9271 68.2493 35.2543 66.6279 34.5587 65.0141C34.463 64.7922 34.2413 64.5491 34.021 64.4686C32.9215 64.0644 31.8112 63.6799 30.6873 63.3502C29.9143 63.1237 29.3265 62.7302 29 61.9825C29 59.4038 29 56.8266 29 54.2479C29.325 53.4987 29.9143 53.1082 30.6858 52.8818C31.8097 52.552 32.9184 52.1691 34.018 51.7649C34.2382 51.6843 34.463 51.4442 34.5587 51.2224C35.2528 49.6116 35.9271 47.9902 36.5741 46.3597C36.6698 46.1196 36.6789 45.7671 36.5741 45.5391C36.041 44.3903 35.4532 43.2674 34.8913 42.1322C34.4098 41.1582 34.507 40.5519 35.2786 39.7769C36.7746 38.274 38.2736 36.7727 39.7756 35.2759C40.5487 34.5054 41.1516 34.4082 42.1297 34.8914C43.2825 35.4597 44.4231 36.0539 45.5879 36.5949C45.7991 36.6936 46.1302 36.6678 46.3565 36.5766C47.9846 35.9247 49.6051 35.2531 51.215 34.5571C51.4352 34.4614 51.6721 34.235 51.7526 34.0146C52.1551 32.9144 52.5409 31.8067 52.8689 30.6822C53.0922 29.9133 53.4871 29.3267 54.2343 29ZM58.1056 40.4926C48.4068 40.4896 40.494 48.3944 40.4819 58.097C40.4697 67.798 48.3688 75.7256 58.0646 75.7454C67.7847 75.7651 75.7233 67.8344 75.7172 58.1106C75.7111 48.4051 67.806 40.4956 58.1056 40.4926Z" fill="white"/>
<path d="M72.3072 58.1213C72.3056 65.9517 65.9223 72.3339 58.0961 72.3324C50.2714 72.3309 43.8895 65.9425 43.8926 58.1137C43.8941 50.2833 50.2759 43.9025 58.1037 43.9041C65.9299 43.9056 72.3087 50.2909 72.3072 58.1213ZM59.2731 49.1193C59.2731 48.9475 59.2883 48.7378 59.2686 48.5327C59.2488 48.3276 59.2276 48.1133 59.1501 47.9264C58.9208 47.3824 58.3406 47.0952 57.7498 47.2046C57.1696 47.311 56.7003 47.8231 56.7474 48.4674C56.796 49.1299 56.591 49.4186 55.947 49.68C54.2718 50.3577 53.4016 51.7253 53.2254 53.4941C53.0492 55.2675 53.7676 56.626 55.3274 57.5149C55.6387 57.6927 55.9455 57.8872 56.2766 58.0225C56.6213 58.1638 56.7474 58.3568 56.7398 58.7443C56.7125 60.2593 56.7292 61.7759 56.7292 63.2909C56.7292 63.6024 56.7292 63.9154 56.7292 64.4214C55.9531 64.0431 55.3152 63.7392 54.6819 63.4231C54.003 63.0842 53.315 63.2529 52.9475 63.8592C52.5799 64.464 52.7303 65.1812 53.3621 65.5961C53.8192 65.8954 54.2976 66.1826 54.8049 66.3771C55.4139 66.6112 56.064 66.7388 56.7383 66.9257C56.7383 67.2524 56.711 67.5943 56.7444 67.9317C56.8082 68.5912 57.364 69.0607 58.0247 69.0516C58.6671 69.0425 59.1729 68.5897 59.2519 67.9423C59.2746 67.7554 59.2898 67.5624 59.2701 67.3755C59.223 66.9242 59.3627 66.7039 59.8366 66.5245C61.9841 65.7131 63.1915 64.1023 63.4178 61.8351C63.6532 59.4782 62.341 57.6396 59.8943 56.7734C59.4341 56.6108 59.22 56.4148 59.2625 55.8996C59.3126 55.2979 59.2746 54.6885 59.2746 54.0822C59.2746 53.3726 59.2746 52.6614 59.2746 51.9031C59.4554 51.9533 59.5556 51.9594 59.6285 52.0065C59.8639 52.163 60.0872 52.3362 60.318 52.5018C60.8754 52.903 61.5604 52.8438 62.016 52.356C62.4428 51.8986 62.4868 51.1859 62.0692 50.6951C61.8398 50.4261 61.5634 50.1617 61.2551 50.0006C60.64 49.6785 59.9869 49.4308 59.2731 49.1193Z" fill="white"/>
<path d="M59.3115 63.9505C59.3115 62.3853 59.3115 60.8825 59.3115 59.3811C60.0496 59.4799 60.6951 60.1576 60.8318 60.9706C61.0338 62.1787 60.4552 63.3639 59.3115 63.9505Z" fill="white"/>
<path d="M56.6794 55.2918C56.1205 55.0806 55.8107 54.6946 55.7682 54.1202C55.7105 53.3376 55.9869 52.6933 56.6794 52.1356C56.6794 53.2343 56.6794 54.2463 56.6794 55.2918Z" fill="white"/>
</svg>
