<svg width="117" height="117" viewBox="0 0 117 117" fill="none" xmlns="http://www.w3.org/2000/svg">
<rect width="117" height="117" fill="#F25C05"/>
<path d="M21 63.912C21.2382 62.4652 21.4183 61.0049 21.7205 59.5718C24.0929 48.3601 33.6042 39.1916 44.8914 37.2375C45.5092 37.1309 46.22 37.0903 46.7933 37.2917C47.7597 37.6326 48.0948 38.4983 48.0928 39.5054C48.087 43.7565 48.0909 48.0076 48.0909 52.2587C48.0909 56.6551 48.1083 61.0514 48.0773 65.4478C48.0696 66.4375 48.3814 67.1928 49.0825 67.89C55.1444 73.921 61.1832 79.9732 67.2296 86.0197C68.748 87.5381 68.626 88.8395 66.8519 90.0616C49.8843 101.767 26.3182 92.5755 21.7456 72.4568C21.4106 70.981 21.246 69.4684 21.0019 67.9733C21 66.6176 21 65.2638 21 63.912Z" fill="white"/>
<path d="M55.3597 21C56.8974 21.2808 58.4468 21.5152 59.9729 21.8522C76.6365 25.5281 89.8082 38.2756 94.038 54.8733C94.5667 56.9475 94.8689 59.0837 95.1884 61.2045C95.4169 62.7209 94.4331 63.7803 92.8934 63.7822C79.5823 63.788 66.2731 63.7861 52.962 63.7842C52.8206 63.7842 52.6793 63.7687 52.441 63.7551C52.441 63.453 52.441 63.1722 52.441 62.8933C52.441 49.8494 52.4526 36.8037 52.4217 23.7598C52.4178 22.4409 52.8458 21.5287 54.0543 21.0019C54.4901 21 54.9239 21 55.3597 21Z" fill="white"/>
<path d="M55.5374 68.134C55.9809 68.134 56.2365 68.134 56.4921 68.134C65.7671 68.134 75.0421 68.134 84.3151 68.134C86.4843 68.134 87.2861 69.0559 86.9859 71.2095C86.0892 77.6355 83.6315 83.407 79.696 88.5567C78.7064 89.8524 77.31 89.9473 76.1538 88.7911C69.4217 82.0668 62.6935 75.3347 55.9654 68.6065C55.8666 68.5058 55.7736 68.3954 55.5374 68.134Z" fill="white"/>
</svg>
