<svg width="117" height="117" viewBox="0 0 117 117" fill="none" xmlns="http://www.w3.org/2000/svg">
<rect width="117" height="117" fill="#F25C05"/>
<path d="M83.3206 48.3064C81.8016 47.9326 80.354 47.6573 78.9573 47.2156C75.1819 46.0228 71.4371 46.0024 67.6311 47.1238C64.8683 47.936 62.041 48.5273 59.2511 49.2477C53.6882 50.6818 50.0759 55.3237 50.0555 61.0837C50.0385 66.599 50.0216 72.1143 50.0589 77.6296C50.1065 84.7556 53.2533 90.1146 59.4074 93.7099C59.506 93.7677 59.6011 93.8323 59.6963 93.8968C59.7167 93.9104 59.7234 93.9376 59.7914 94.0429C59.5128 94.0599 59.2715 94.0837 59.0336 94.0837C51.4964 94.0871 43.9591 94.0939 36.4219 94.0837C30.509 94.0769 26.0234 89.6627 26.0166 83.76C25.9962 66.6058 25.9928 49.455 26.0166 32.3008C26.0234 26.4423 30.5124 22.011 36.3641 22.0076C48.5807 21.9975 60.7939 21.9975 73.0105 22.0076C78.8554 22.011 83.3036 26.4763 83.3172 32.3314C83.3308 37.6088 83.3206 42.8897 83.3206 48.3064ZM54.6363 33.0892C49.8754 33.0892 45.1145 33.0892 40.3536 33.0926C40.0104 33.0926 39.6536 33.0858 39.3206 33.1572C37.9681 33.446 36.9894 34.7611 37.1185 36.0728C37.2647 37.5783 38.4608 38.6317 40.0818 38.6351C49.7463 38.6419 59.4108 38.6385 69.0787 38.6385C70.9647 38.6385 72.2527 37.4865 72.2289 35.8282C72.2085 34.2106 70.9341 33.096 69.0889 33.096C64.2737 33.0858 59.455 33.0892 54.6363 33.0892ZM47.2758 49.7235C49.6444 49.7235 52.0095 49.7303 54.3781 49.7235C56.1723 49.7167 57.484 48.5103 57.45 46.9097C57.4195 45.3228 56.1451 44.1844 54.3815 44.181C49.6477 44.1742 44.914 44.1742 40.1769 44.181C38.3861 44.1844 37.0744 45.3907 37.105 46.9913C37.1355 48.5715 38.4133 49.7167 40.1735 49.7235C42.5421 49.7269 44.9106 49.7235 47.2758 49.7235ZM43.6261 55.2693C42.4164 55.2693 41.2066 55.2557 39.9968 55.2727C38.3861 55.2931 37.1423 56.4791 37.1117 57.9981C37.0812 59.5341 38.3555 60.7982 40.0002 60.8084C42.3926 60.8254 44.7815 60.8254 47.1739 60.8084C48.7982 60.7948 50.0284 59.6089 50.0521 58.0831C50.0759 56.5233 48.8288 55.2965 47.1705 55.2727C45.9879 55.2557 44.8053 55.2693 43.6261 55.2693Z" fill="white"/>
<path d="M55.5983 69.62C55.5983 66.7044 55.5779 63.7887 55.6051 60.873C55.6289 58.0015 57.4639 55.4971 60.213 54.7528C63.8287 53.7742 67.4716 52.894 71.1111 52.0105C72.7728 51.6095 74.4346 51.7828 76.0793 52.2008C79.209 52.9926 82.3422 53.7673 85.472 54.5659C88.877 55.4359 90.7222 57.8146 90.7256 61.342C90.7324 66.7689 90.7596 72.1959 90.7188 77.6228C90.6814 82.9308 88.2789 86.8218 83.5248 89.2243C81.6456 90.1724 79.7596 91.1035 77.8769 92.0414C74.8118 93.5672 71.716 93.6182 68.6304 92.1366C66.4488 91.0899 64.2603 90.0433 62.1432 88.8709C57.9328 86.5431 55.7444 82.907 55.6119 78.1019C55.5371 75.278 55.5983 72.4473 55.5983 69.62Z" fill="white"/>
</svg>
