<svg width="117" height="117" viewBox="0 0 117 117" fill="none" xmlns="http://www.w3.org/2000/svg">
<rect width="117" height="117" fill="#F25C05"/>
<path d="M63.3322 32.4282C63.1945 34.5402 63.0588 36.6339 62.9211 38.75C54.4085 36.4963 46.6693 38.106 40.1775 44.3549C35.3421 49.0081 33.141 54.8215 33.3071 61.5442C33.623 74.3536 45.3208 84.6806 58.1788 83.3988C65.3895 82.68 71.1037 79.2802 75.1353 73.2683C79.1607 67.2645 79.916 60.6998 77.9924 53.8496C80.1124 53.7159 82.2244 53.5843 84.3485 53.4507C84.6462 53.6491 85.0005 53.9751 85.4197 54.1493C86.8351 54.7345 88.2687 55.2791 89.7064 55.8056C90.1255 55.9595 90.2693 56.1701 90.2652 56.6176C90.243 59.3087 90.243 62.0018 90.2673 64.6929C90.2713 65.1586 90.0952 65.3408 89.6902 65.4907C88.1594 66.0576 86.6346 66.6408 85.1281 67.2665C84.8608 67.3779 84.5713 67.6917 84.4943 67.9691C83.7653 70.5995 82.7448 73.0982 81.3861 75.4673C81.2342 75.7346 81.212 76.1902 81.3294 76.4777C81.949 77.9883 82.6152 79.4786 83.3037 80.9608C83.4981 81.378 83.4252 81.627 83.1113 81.9368C81.1937 83.8261 79.2883 85.7295 77.4011 87.6491C77.1014 87.9548 76.8645 87.9913 76.4899 87.8191C75.0057 87.1388 73.5032 86.4989 72.019 85.8165C71.6423 85.6444 71.3528 85.6282 70.9822 85.853C68.6455 87.2663 66.1306 88.2606 63.5043 88.9976C63.2087 89.0807 62.8685 89.3824 62.749 89.6679C62.1274 91.1501 61.5503 92.6505 60.9995 94.1611C60.8395 94.5985 60.6553 94.7868 60.1551 94.7827C57.464 94.7564 54.7709 94.7605 52.0798 94.7807C51.6566 94.7848 51.4582 94.6471 51.3144 94.2563C50.7495 92.7255 50.1744 91.1967 49.5487 89.6881C49.4272 89.3965 49.0992 89.0726 48.8056 88.9916C46.1449 88.2707 43.63 87.2218 41.2426 85.8489C41.0118 85.7153 40.6129 85.6991 40.3659 85.8024C38.8371 86.4402 37.3204 87.1125 35.8179 87.8131C35.3968 88.0095 35.1538 87.9325 34.846 87.6187C32.9548 85.7011 31.0534 83.7977 29.1338 81.9085C28.83 81.6108 28.7855 81.3759 28.9596 80.9973C29.6522 79.4908 30.3345 77.9802 30.9724 76.4494C31.0817 76.1841 31.0595 75.7589 30.9157 75.5098C29.5712 73.163 28.5101 70.7027 27.85 68.0785C27.7346 67.6209 27.528 67.3556 27.0684 67.1896C25.5578 66.6428 24.0675 66.0354 22.5569 65.4846C22.1358 65.3307 21.996 65.1161 22.0001 64.6686C22.0203 62.0018 22.0224 59.335 22.0001 56.6682C21.996 56.1944 22.1277 55.9656 22.5873 55.7995C24.1222 55.2447 25.6449 54.6555 27.1514 54.0298C27.4187 53.9184 27.7062 53.6005 27.7812 53.3231C28.5101 50.6664 29.5489 48.1455 30.9258 45.7581C31.0676 45.5131 31.0757 45.0858 30.9643 44.8165C30.3264 43.2857 29.6177 41.7853 28.9819 40.2565C28.8888 40.0337 28.9576 39.6065 29.1216 39.4404C31.0372 37.4783 32.975 35.5385 34.9391 33.6229C35.1052 33.4589 35.5365 33.3961 35.7592 33.4893C37.29 34.1251 38.7905 34.8338 40.3213 35.4696C40.5886 35.581 41.0179 35.5689 41.2629 35.4271C43.63 34.0664 46.1165 33.0033 48.7651 32.3412C49.2187 32.2278 49.4293 31.999 49.5832 31.5859C50.1501 30.0551 50.7556 28.5384 51.3286 27.0096C51.4602 26.6593 51.6283 26.5054 52.0292 26.5075C54.7709 26.5257 57.5147 26.5257 60.2564 26.5075C60.6512 26.5054 60.8274 26.6452 60.959 27.0015C61.5158 28.5101 62.0828 30.0146 62.6883 31.5029C62.8239 31.8572 63.1256 32.1448 63.3322 32.4282Z" fill="white"/>
<path d="M80.1066 51.359C72.0232 51.3731 65.4079 44.7619 65.416 36.6765C65.4241 28.6113 71.9929 22.0203 80.0438 22.0001C88.1292 21.9778 94.7628 28.5749 94.7769 36.6501C94.7891 44.7416 88.2042 51.3448 80.1066 51.359ZM78.0777 37.94C77.0551 36.8992 76.0609 35.8665 75.0444 34.8581C74.04 33.8619 72.7218 33.8052 71.8228 34.6941C70.9318 35.5729 70.9804 36.9316 71.9564 37.9177C73.4609 39.4364 74.9695 40.953 76.4902 42.4555C77.5694 43.5206 78.7945 43.5145 79.8697 42.4332C82.6559 39.6328 85.4341 36.8263 88.2062 34.0137C89.247 32.9588 89.2875 31.6568 88.3439 30.7375C87.4529 29.8688 86.1347 29.9498 85.1243 30.9562C83.9478 32.1286 82.7916 33.3212 81.6131 34.4896C80.4751 35.6174 79.3169 36.7311 78.0777 37.94Z" fill="white"/>
<path d="M58.9203 54.5057C58.8312 57.1684 58.7502 59.8311 58.6489 62.4939C58.6287 63.0183 58.6145 63.561 58.4748 64.0611C58.163 65.1728 56.9784 65.9038 55.8485 65.7641C54.6923 65.6203 53.7609 64.6767 53.6961 63.4962C53.5887 61.5138 53.5159 59.5294 53.445 57.545C53.3093 53.803 53.1838 50.061 53.0582 46.317C52.9995 44.5837 53.9532 43.5672 55.6724 43.5227C56.049 43.5125 56.4276 43.5105 56.8022 43.5308C58.2946 43.6158 59.2706 44.6485 59.226 46.1408C59.141 48.9291 59.0296 51.7174 58.9304 54.5036C58.9264 54.5057 58.9243 54.5057 58.9203 54.5057Z" fill="white"/>
<path d="M56.1639 77.7453C54.4063 77.7574 52.9787 76.3663 52.9625 74.6249C52.9463 72.8896 54.3597 71.4539 56.1031 71.4296C57.8405 71.4074 59.2822 72.8228 59.2964 74.5642C59.3126 76.3197 57.9195 77.7331 56.1639 77.7453Z" fill="white"/>
</svg>
