<svg width="117" height="117" viewBox="0 0 117 117" fill="none" xmlns="http://www.w3.org/2000/svg">
<rect width="117" height="117" fill="#F25C05"/>
<path d="M95.9999 56.6593C95.7827 56.6808 95.5674 56.72 95.3502 56.72C89.1272 56.7239 82.9022 56.7219 76.6791 56.7219C76.4619 56.7219 76.2447 56.7219 75.9766 56.7219C75.9766 51.4147 75.9766 46.1584 75.9766 40.8257C76.82 40.8257 77.6419 40.814 78.4658 40.8277C80.7084 40.8688 82.9707 40.7494 85.1898 41.0019C90.5714 41.6105 95.1056 46.1975 95.8571 51.5634C95.8825 51.7513 95.953 51.9313 95.9999 52.1153C95.9999 53.6319 95.9999 55.1446 95.9999 56.6593Z" fill="white"/>
<path d="M95.9995 77.1661C95.5396 77.855 94.929 78.1974 94.0132 77.9763C94.2852 74.9842 93.5514 72.2542 91.6199 69.904C89.7001 67.5674 87.1952 66.3012 84.2794 65.9979C84.2794 64.9294 84.3381 63.9099 84.2657 62.8981C84.1581 61.3972 82.8724 60.1525 81.2853 60.0841C79.5201 60.0058 77.7491 60.0664 75.9526 60.0664C75.9526 59.9706 75.9526 59.7083 75.9526 59.36C76.2657 59.36 76.5495 59.36 76.8352 59.36C82.9095 59.36 88.9819 59.36 95.0562 59.358C95.3713 59.358 95.6844 59.3189 95.9995 59.2974C95.9995 65.2523 95.9995 71.2092 95.9995 77.1661Z" fill="white"/>
<path d="M44.4424 78.0408C45.0784 71.3051 39.9571 65.9665 33.7615 65.9509C27.4014 65.9333 22.2449 71.5575 23.0101 77.9332C21.742 78.2424 21.0023 77.7003 21.0023 76.4322C20.9983 62.1525 21.0003 47.8707 21.0023 33.591C21.0023 32.4599 21.4915 32.002 22.697 32.002C31.0452 32 39.3935 32 47.7418 32C55.6263 32 63.5108 32 71.3953 32C72.9198 32 73.2877 32.3699 73.2877 33.9021C73.2877 47.9882 73.2877 62.0722 73.2877 76.1583C73.2877 77.6475 72.9041 78.0389 71.4403 78.0389C62.7006 78.0389 53.9629 78.0389 45.2232 78.0389C44.9865 78.0408 44.7477 78.0408 44.4424 78.0408ZM47.2272 50.3228C41.8847 50.3228 36.5442 50.3228 31.2018 50.3228C30.9337 50.3228 30.6637 50.313 30.3975 50.3443C29.7204 50.4265 29.3408 50.8472 29.2821 51.5009C29.2233 52.1545 29.5286 52.6418 30.1646 52.8511C30.4347 52.9392 30.74 52.9549 31.0296 52.9549C41.7614 52.9588 52.4933 52.9588 63.2251 52.9549C63.5147 52.9549 63.8161 52.9373 64.092 52.8609C64.7222 52.6829 65.0842 52.1036 64.9922 51.4559C64.8983 50.7925 64.5108 50.4069 63.8376 50.3404C63.595 50.3169 63.3503 50.3247 63.1057 50.3247C57.8142 50.3228 52.5207 50.3228 47.2272 50.3228ZM47.1371 56.9157C41.8201 56.9157 36.5031 56.9157 31.1861 56.9157C30.9415 56.9157 30.6969 56.9079 30.4543 56.9314C29.7869 56.994 29.3251 57.4636 29.2723 58.1114C29.2214 58.7435 29.6147 59.3149 30.2527 59.4715C30.5325 59.54 30.8319 59.5497 31.1216 59.5497C41.8045 59.5537 52.4874 59.5537 63.1723 59.5478C63.5089 59.5478 63.8709 59.538 64.1781 59.4225C64.7985 59.1916 65.0744 58.6887 64.9883 58.0292C64.9061 57.3971 64.5284 57.0214 63.8924 56.9392C63.6282 56.9059 63.3562 56.9177 63.0881 56.9177C57.7711 56.9157 52.4541 56.9157 47.1371 56.9157ZM47.143 43.7318C41.826 43.7318 36.509 43.7318 31.1901 43.7318C30.922 43.7318 30.601 43.6516 30.3975 43.771C30.0081 43.998 29.4817 44.2896 29.3877 44.6516C29.284 45.0547 29.4758 45.6809 29.7693 45.994C30.0296 46.2719 30.6049 46.3522 31.0433 46.3541C41.7751 46.3717 52.507 46.3698 63.2408 46.3639C63.5539 46.3639 63.8885 46.3522 64.1742 46.2445C64.7965 46.0097 65.0744 45.5146 64.9903 44.8551C64.91 44.225 64.5343 43.8434 63.9002 43.7592C63.6361 43.724 63.364 43.7357 63.0959 43.7357C57.777 43.7318 52.46 43.7318 47.143 43.7318Z" fill="white"/>
<path d="M33.7047 84.8275C29.2233 84.8001 25.6206 81.1836 25.6226 76.716C25.6245 72.2209 29.3094 68.5497 33.7771 68.5927C38.2741 68.6358 41.8553 72.3031 41.8103 76.8255C41.7692 81.258 38.1254 84.8568 33.7047 84.8275ZM33.7282 82.1934C36.7321 82.1993 39.1665 79.7649 39.1743 76.7473C39.1841 73.6905 36.7321 71.2131 33.7145 71.2307C30.7047 71.2483 28.2801 73.671 28.2586 76.6886C28.237 79.7218 30.6832 82.1856 33.7282 82.1934Z" fill="white"/>
<path d="M83.2665 84.8274C78.8165 84.8 75.1903 81.1308 75.2157 76.6768C75.2411 72.2248 78.9319 68.5536 83.3429 68.5907C87.8399 68.6299 91.4955 72.3324 91.4387 76.7903C91.38 81.2599 87.7244 84.8548 83.2665 84.8274ZM83.2998 82.1914C86.337 82.1914 88.7988 79.7414 88.8008 76.7179C88.8027 73.7023 86.3233 71.2248 83.3076 71.2267C80.3018 71.2287 77.8341 73.7257 77.8497 76.7472C77.8674 79.7453 80.3174 82.1914 83.2998 82.1914Z" fill="white"/>
<path d="M81.5852 63.9078C79.9531 63.9078 78.3132 63.9078 76.6831 63.9078C76.4776 62.9665 76.6714 62.6984 77.5559 62.6925C78.6009 62.6847 79.6439 62.6847 80.689 62.6925C81.5931 62.6984 81.7457 62.9019 81.5852 63.9078Z" fill="white"/>
<path d="M75.9648 68.7337C75.9648 68.0429 75.9648 67.3521 75.9648 66.6221C77.0881 66.6221 78.1742 66.6221 79.2721 66.6221C78.1781 67.3208 77.094 68.0116 75.9648 68.7337Z" fill="white"/>
<path d="M33.7379 80.5652C31.5853 80.5652 29.8514 78.8764 29.824 76.7512C29.7966 74.6181 31.5657 72.8608 33.7399 72.8627C35.8886 72.8647 37.5892 74.5653 37.5892 76.7179C37.5911 78.8686 35.8925 80.5633 33.7379 80.5652Z" fill="white"/>
<path d="M83.2953 80.5652C81.1525 80.5594 79.4402 78.8451 79.4441 76.7081C79.448 74.5751 81.174 72.8569 83.311 72.8608C85.493 72.8647 87.2307 74.6025 87.2112 76.759C87.1897 78.8784 85.4499 80.5711 83.2953 80.5652Z" fill="white"/>
</svg>
