<svg width="117" height="117" viewBox="0 0 117 117" fill="none" xmlns="http://www.w3.org/2000/svg">
<rect width="117" height="117" fill="#F25C05"/>
<path d="M97.6547 76.8222C97.217 77.8785 96.4044 78.1968 95.298 78.1968C75.3547 78.1786 55.4113 78.1826 35.4659 78.1826C33.701 78.1826 33.1133 77.5926 33.1133 75.8085C33.1113 60.7851 33.1133 45.7618 33.1133 30.7405C33.1133 30.3918 33.1133 30.043 33.1133 29.5869C32.7749 29.5869 32.5075 29.5869 32.238 29.5869C28.9512 29.5869 25.6665 29.5889 22.3798 29.5828C22.0535 29.5828 21.7192 29.5767 21.401 29.5098C20.5864 29.3395 20.0272 28.6522 20.0008 27.8453C19.9765 27.0384 20.4952 26.3146 21.3017 26.1058C21.6381 26.0186 22.0008 26.0044 22.3514 26.0044C26.319 25.9983 30.2886 26.0003 34.2562 26.0003C36.0779 26.0003 36.6757 26.5923 36.6757 28.3927C36.6757 43.4404 36.6757 58.4881 36.6757 73.5378C36.6757 73.8621 36.6757 74.1865 36.6757 74.5596C38.1934 74.5596 39.6463 74.5596 41.2127 74.5596C41.2127 74.2291 41.2127 73.9108 41.2127 73.5925C41.2127 63.8547 41.2127 54.1189 41.2127 44.3811C41.2127 43.1079 41.3707 42.9518 42.6615 42.9518C45.8469 42.9518 49.0324 42.9518 52.2158 42.9518C52.4873 42.9518 52.7588 42.9518 53.1236 42.9518C53.1236 43.3248 53.1236 43.6208 53.1236 43.9148C53.1236 47.8602 53.1236 51.8056 53.1236 55.751C53.1236 55.9538 53.0668 56.1808 53.1378 56.3532C53.2816 56.7019 53.4275 57.1925 53.7031 57.3061C53.9787 57.4196 54.5096 57.2513 54.7649 57.0222C56.23 55.7024 57.6464 54.3298 59.077 52.9734C59.462 52.6085 59.845 52.2435 60.465 51.6535C60.9048 52.1989 61.2918 52.7626 61.7619 53.2451C62.9635 54.4737 64.2057 55.6638 65.4255 56.8762C65.7781 57.227 66.1328 57.5696 66.6778 57.3486C67.225 57.1276 67.2412 56.6289 67.2412 56.1342C67.2412 52.0631 67.2412 47.99 67.2412 43.9189C67.2412 43.6208 67.2412 43.3228 67.2412 42.9518C67.5998 42.9518 67.8734 42.9518 68.1469 42.9518C71.3324 42.9518 74.5178 42.9518 77.7012 42.9518C79.0204 42.9518 79.1622 43.0977 79.1622 44.448C79.1622 54.1595 79.1622 63.8709 79.1622 73.5824C79.1622 73.8824 79.1622 74.1805 79.1622 74.5616C79.5046 74.5799 79.7964 74.6082 80.0882 74.6082C85.1683 74.6103 90.2504 74.6285 95.3305 74.5961C96.4044 74.59 97.1886 74.9245 97.6547 75.9099C97.6547 76.214 97.6547 76.5181 97.6547 76.8222Z" fill="white"/>
<path d="M53.1013 85.4085C53.1195 88.6017 50.5218 91.2212 47.3465 91.213C44.2056 91.2049 41.6119 88.6179 41.5876 85.4673C41.5633 82.3166 44.1327 79.7114 47.2877 79.687C50.5137 79.6647 53.0851 82.1909 53.1013 85.4085Z" fill="white"/>
<path d="M77.9384 85.382C77.9627 82.199 80.5808 79.6525 83.7946 79.689C86.9476 79.7255 89.4866 82.3267 89.4602 85.4976C89.4339 88.6401 86.8179 91.2272 83.677 91.213C80.4997 91.1988 77.9141 88.5712 77.9384 85.382Z" fill="white"/>
<path d="M65.1965 54.3723C63.926 53.0403 62.6676 51.6981 61.3809 50.3823C60.4609 49.4416 60.2076 49.4538 59.2694 50.3398C57.8631 51.6698 56.4568 52.9998 54.9492 54.4271C54.9492 50.5364 54.9492 46.7958 54.9492 43.0024C58.4345 43.0024 61.9037 43.0024 65.4255 43.0024C65.4255 46.739 65.4255 50.4634 65.4255 54.1858C65.3485 54.2466 65.2735 54.3095 65.1965 54.3723Z" fill="white"/>
</svg>
