<svg width="117" height="117" viewBox="0 0 117 117" fill="none" xmlns="http://www.w3.org/2000/svg">
<rect width="117" height="117" fill="#F25C05"/>
<path d="M80.8825 58.8111C80.8825 66.3218 80.8858 73.8325 80.8808 81.3432C80.8792 83.8661 79.4833 85.8234 77.2369 86.4255C76.7445 86.5582 76.2173 86.6163 75.7067 86.6163C64.5395 86.6263 53.374 86.6263 42.2068 86.6229C39.1465 86.6213 37.0079 84.4998 37.0062 81.4361C36.9979 66.3533 36.9979 51.2688 37.0062 36.186C37.0079 33.1207 39.1465 31.0025 42.2085 31.0025C53.3541 30.9992 64.5014 30.9992 75.647 31.0025C78.7505 31.0041 80.8758 33.1124 80.8808 36.2192C80.8891 43.7498 80.8825 51.2804 80.8825 58.8111ZM42.0643 58.8028C42.0643 59.6504 42.0543 60.498 42.0659 61.3439C42.0891 63.0491 43.3209 64.3363 45.0268 64.3728C46.7609 64.4093 48.4967 64.4076 50.2324 64.3728C51.7974 64.3396 53.0524 63.2482 53.132 61.6989C53.2314 59.7831 53.2314 57.854 53.1336 55.9381C53.0557 54.3839 51.8074 53.2842 50.2473 53.251C48.4917 53.2145 46.736 53.2095 44.9804 53.2527C43.3093 53.2941 42.0908 54.5863 42.0659 56.2599C42.0543 57.1075 42.0659 57.9552 42.0643 58.8028ZM47.6495 48.172V48.1736C48.4751 48.1736 49.3024 48.1886 50.128 48.1703C51.9068 48.1322 53.1336 46.9595 53.1801 45.1813C53.2248 43.4678 53.2265 41.751 53.1784 40.0376C53.127 38.2594 51.8787 37.0834 50.1081 37.0718C48.4353 37.0602 46.7626 37.0568 45.0898 37.0734C43.3458 37.09 42.0842 38.3507 42.0692 40.0907C42.0543 41.7643 42.0576 43.438 42.0676 45.1116C42.0792 46.8715 43.2927 48.1189 45.0467 48.1687C45.9138 48.1919 46.7808 48.172 47.6495 48.172ZM47.5865 80.552C47.5865 80.5537 47.5865 80.5537 47.5865 80.5553C48.4337 80.5553 49.2792 80.5636 50.1263 80.5537C51.8621 80.5304 53.1154 79.371 53.1718 77.626C53.2281 75.8711 53.2315 74.1128 53.1701 72.3579C53.1104 70.6361 51.8836 69.4816 50.1661 69.4551C48.432 69.4302 46.6963 69.4219 44.9622 69.4617C43.3126 69.4999 42.0875 70.7622 42.0676 72.4076C42.0477 74.1427 42.046 75.8794 42.0676 77.6144C42.0891 79.2482 43.3524 80.5089 44.9821 80.547C45.8524 80.5686 46.7195 80.552 47.5865 80.552ZM64.1997 57.9518C65.1098 57.9518 66.0183 57.9518 66.9285 57.9518C68.83 57.9518 70.7332 57.9585 72.6348 57.9469C73.2697 57.9435 73.6908 57.5322 73.6974 56.9732C73.7041 56.4241 73.273 56.0078 72.6513 55.9697C72.4872 55.9597 72.3214 55.9663 72.1556 55.9663C66.9666 55.9663 61.7776 55.9663 56.5886 55.9663C56.2984 55.9663 56.0083 55.9481 55.7215 55.9763C55.1446 56.0327 54.7616 56.4739 54.7915 57.0163C54.823 57.5952 55.2474 57.9485 55.952 57.9502C58.7006 57.9552 61.4493 57.9518 64.1997 57.9518ZM64.2643 39.7921C61.5554 39.7921 58.8482 39.7921 56.1393 39.7921C55.2358 39.7921 54.7815 40.1255 54.7865 40.779C54.7915 41.4292 55.2606 41.7726 56.1509 41.7776C56.1923 41.7776 56.2338 41.7776 56.2752 41.7776C61.5886 41.7776 66.902 41.7792 72.2153 41.7743C72.4806 41.7743 72.7591 41.7676 73.0094 41.693C73.4819 41.5537 73.7273 41.1887 73.6875 40.706C73.646 40.2001 73.3493 39.8717 72.8237 39.8054C72.6397 39.7821 72.4524 39.7921 72.2667 39.7921C69.5976 39.7921 66.9301 39.7921 64.2643 39.7921ZM64.2146 74.1543C65.3104 74.1543 66.4063 74.1543 67.5004 74.1543C69.1947 74.1543 70.8907 74.1642 72.585 74.146C73.2647 74.1394 73.7007 73.7147 73.6958 73.1474C73.6908 72.5752 73.2564 72.1986 72.5684 72.1688C72.4657 72.1638 72.3612 72.1671 72.2584 72.1671C66.9053 72.1671 61.5521 72.1671 56.1973 72.1688C55.9917 72.1688 55.7812 72.1655 55.5789 72.202C55.0849 72.2899 54.8147 72.6166 54.7931 73.101C54.7699 73.6135 55.0186 73.9801 55.5358 74.0979C55.7746 74.1526 56.0282 74.151 56.2752 74.1526C58.9245 74.1543 61.5687 74.1543 64.2146 74.1543ZM62.6645 45.4566C64.833 45.4566 67.0031 45.4583 69.1715 45.455C69.3987 45.455 69.6308 45.4616 69.8496 45.4152C70.332 45.3123 70.5989 44.9939 70.6155 44.4996C70.6321 44.0053 70.3884 43.6619 69.9126 43.5358C69.6573 43.4695 69.3804 43.4711 69.1135 43.4711C64.838 43.4678 60.5624 43.4678 56.2868 43.4711C56.0199 43.4711 55.7447 43.4711 55.4878 43.5342C55.002 43.6536 54.76 44.0185 54.7749 44.4946C54.7898 44.969 55.0484 45.3173 55.5425 45.4135C55.763 45.4566 55.9951 45.4533 56.2205 45.4533C58.3691 45.4566 60.5176 45.4566 62.6645 45.4566ZM62.7043 59.6719C60.4314 59.6719 58.1585 59.667 55.8856 59.6753C55.2092 59.6769 54.7815 60.085 54.7882 60.6705C54.7948 61.2328 55.2092 61.6508 55.8442 61.6525C60.4115 61.6624 64.9772 61.6707 69.5445 61.6309C69.8761 61.6276 70.3337 61.3224 70.5077 61.0255C70.8924 60.3719 70.3287 59.6786 69.4617 59.6753C67.2103 59.667 64.9573 59.6719 62.7043 59.6719ZM62.6993 77.83C64.9722 77.83 67.2451 77.835 69.518 77.8267C70.1762 77.8251 70.584 77.4568 70.6089 76.8945C70.6354 76.3057 70.2209 75.8943 69.5495 75.8478C69.3854 75.8362 69.2196 75.8445 69.0538 75.8445C64.9424 75.8445 60.8293 75.8445 56.7179 75.8445C56.388 75.8445 56.0531 75.823 55.7265 75.8595C55.0352 75.9374 54.6406 76.5097 54.8362 77.1367C55.0037 77.6758 55.4148 77.835 55.942 77.8333C58.195 77.8267 60.4463 77.8317 62.6993 77.83Z" fill="white"/>
<path d="M47.6748 55.2266C48.4606 55.2266 49.2464 55.2167 50.0306 55.2299C50.8098 55.2432 51.1894 55.5948 51.1977 56.3661C51.2159 58 51.2176 59.6338 51.1977 61.2677C51.1877 62.034 50.8031 62.3873 50.019 62.394C48.4274 62.4056 46.8359 62.4039 45.2444 62.394C44.4072 62.389 44.0541 62.0174 44.0508 61.1632C44.0458 59.5907 44.0441 58.0199 44.0508 56.4474C44.0541 55.5982 44.4089 55.2382 45.256 55.2283C46.0634 55.2183 46.8691 55.2266 47.6748 55.2266Z" fill="white"/>
<path d="M47.6708 39.0556C48.4765 39.0556 49.2822 39.0456 50.088 39.0589C50.8025 39.0688 51.1838 39.4039 51.1954 40.1105C51.2203 41.7842 51.2186 43.4595 51.1954 45.1331C51.1854 45.8165 50.8191 46.1732 50.1476 46.1798C48.4749 46.198 46.8005 46.1964 45.1277 46.1798C44.4182 46.1732 44.0601 45.8049 44.0551 45.0983C44.0435 43.4446 44.0435 41.7908 44.0551 40.1371C44.0601 39.4304 44.4248 39.0705 45.1294 39.0589C45.9765 39.044 46.8237 39.0556 47.6708 39.0556Z" fill="white"/>
<path d="M47.6265 78.5682C46.8208 78.5682 46.0151 78.5748 45.2094 78.5665C44.4219 78.5582 44.0588 78.2115 44.0538 77.4402C44.0439 75.8064 44.0439 74.1742 44.0538 72.5404C44.0588 71.8055 44.4202 71.4456 45.1712 71.4406C46.8042 71.4273 48.4355 71.4273 50.0685 71.4406C50.8228 71.4473 51.1892 71.7889 51.1975 72.5354C51.2173 74.1676 51.2173 75.8014 51.1991 77.4353C51.1908 78.2215 50.8261 78.5582 50.0436 78.5682C49.2379 78.5765 48.4322 78.5682 47.6265 78.5682Z" fill="white"/>
</svg>
