<svg width="117" height="117" viewBox="0 0 117 117" fill="none" xmlns="http://www.w3.org/2000/svg">
<rect width="117" height="117" fill="#F25C05"/>
<path d="M58.1061 31C58.5423 31 58.98 31 59.4163 31C60.0393 31.3197 60.7003 31.5825 61.2781 31.9694C62.7591 32.9606 64.2108 33.9956 65.6553 35.0409C66.1514 35.4 66.665 35.5679 67.2749 35.5708C69.1673 35.5767 71.0598 35.5898 72.9522 35.6453C74.7979 35.6993 75.9798 36.5971 76.5795 38.3344C77.2025 40.1387 77.7905 41.9548 78.4529 43.7432C78.6192 44.1913 78.9432 44.6439 79.3181 44.9402C80.8312 46.1359 82.3953 47.2658 83.9318 48.4308C85.3587 49.5111 85.8373 50.9724 85.3223 52.6804C84.7605 54.5418 84.1594 56.3929 83.6341 58.2644C83.5101 58.7068 83.5086 59.244 83.6341 59.6863C84.155 61.5404 84.7518 63.3725 85.3106 65.2178C85.8475 66.9915 85.3704 68.4382 83.8909 69.5536C82.3662 70.7039 80.8181 71.8266 79.3211 73.0105C78.9475 73.3069 78.6222 73.7594 78.4558 74.2076C77.8226 75.9098 77.2623 77.6397 76.6758 79.3609C75.9637 81.4456 74.8388 82.2792 72.6283 82.3215C70.8088 82.3566 68.9879 82.3376 67.1699 82.4091C66.6927 82.4281 66.1616 82.6047 65.7633 82.8704C64.1598 83.9391 62.6015 85.0778 61.0198 86.18C59.5228 87.2223 57.9937 87.2179 56.5069 86.177C54.9428 85.0821 53.3743 83.9916 51.8233 82.8748C51.3564 82.5391 50.869 82.3872 50.3014 82.3828C48.3915 82.3697 46.4801 82.3595 44.5702 82.3055C42.7288 82.2529 41.547 81.3536 40.9458 79.6135C40.3228 77.8091 39.7348 75.993 39.0724 74.2047C38.906 73.7565 38.5807 73.3039 38.2057 73.0076C36.6941 71.812 35.1329 70.6777 33.5921 69.5171C32.1709 68.4455 31.6865 66.974 32.203 65.2674C32.7662 63.4061 33.3659 61.555 33.8926 59.6834C34.0167 59.2411 34.0167 58.7038 33.8926 58.2601C33.3601 56.371 32.7531 54.5038 32.1884 52.6235C31.6938 50.9782 32.1811 49.5023 33.5541 48.4629C35.1066 47.2877 36.6824 46.1446 38.2086 44.9359C38.5836 44.6395 38.9075 44.187 39.0738 43.7388C39.7071 42.0366 40.2674 40.3066 40.8539 38.5869C41.5659 36.4993 42.6953 35.6657 44.9014 35.6263C46.7209 35.5942 48.5418 35.6117 50.3598 35.5387C50.8384 35.5197 51.352 35.3285 51.7678 35.0803C52.5309 34.6263 53.2211 34.0482 53.9681 33.5621C55.3265 32.6803 56.5113 31.5066 58.1061 31ZM58.786 75.8105C68.0876 75.8047 75.5887 68.2718 75.5873 58.9389C75.5858 49.6673 68.0482 42.1417 58.7656 42.1417C49.48 42.1417 41.9395 49.6644 41.9351 58.9316C41.9322 68.2864 49.4479 75.8164 58.786 75.8105Z" fill="white"/>
<path d="M58.7685 44.3593C66.8154 44.3739 73.3637 50.9301 73.3535 58.9608C73.3433 67.0427 66.7789 73.5974 58.7248 73.5682C50.6765 73.5376 44.1413 66.974 44.1646 58.9448C44.1894 50.8936 50.7451 44.3447 58.7685 44.3593ZM56.0736 62.4996C55.8343 62.2266 55.6184 61.9828 55.4054 61.7375C54.0688 60.1988 52.7396 58.6543 51.39 57.1273C51.1828 56.8937 50.8997 56.6718 50.6094 56.5827C50.1352 56.4382 49.712 56.6207 49.4363 57.0572C49.1517 57.5068 49.1984 57.9754 49.6143 58.4572C51.3608 60.4835 53.1146 62.5025 54.8684 64.5215C55.6476 65.4178 56.148 65.4514 57.0147 64.6587C59.3916 62.4849 61.7626 60.3054 64.135 58.1287C65.3548 57.009 66.5761 55.8907 67.7959 54.771C68.1387 54.4557 68.3985 54.0528 68.1927 53.6148C68.0395 53.2893 67.7244 52.9681 67.4004 52.8104C66.9656 52.5988 66.5702 52.8732 66.2317 53.1856C64.5728 54.7141 62.9065 56.2367 61.2431 57.7608C59.5287 59.3316 57.8143 60.9039 56.0736 62.4996Z" fill="white"/>
</svg>
